<svg xmlns="http://www.w3.org/2000/svg" viewBox="0 0 256 256" width="256" height="256">
  <defs>
    <radialGradient id="bgb" cx="50%" cy="50%" r="50%">
      <stop offset="0%" stop-color="#fff3c4"/>
      <stop offset="100%" stop-color="#f5d76e"/>
    </radialGradient>
    <radialGradient id="fur" cx="45%" cy="40%" r="55%">
      <stop offset="0%" stop-color="#d4a056"/>
      <stop offset="100%" stop-color="#b07830"/>
    </radialGradient>
    <radialGradient id="muzzle" cx="50%" cy="45%" r="50%">
      <stop offset="0%" stop-color="#f0d8b0"/>
      <stop offset="100%" stop-color="#e8c898"/>
    </radialGradient>
  </defs>
  <!-- Background -->
  <circle cx="128" cy="128" r="120" fill="url(#bgb)"/>
  <circle cx="128" cy="128" r="120" fill="none" stroke="#e8c040" stroke-width="3" opacity="0.4"/>
  <!-- Ears -->
  <circle cx="75" cy="72" r="30" fill="url(#fur)"/>
  <circle cx="181" cy="72" r="30" fill="url(#fur)"/>
  <circle cx="75" cy="72" r="18" fill="url(#muzzle)"/>
  <circle cx="181" cy="72" r="18" fill="url(#muzzle)"/>
  <!-- Head -->
  <ellipse cx="128" cy="140" rx="78" ry="72" fill="url(#fur)"/>
  <!-- Muzzle -->
  <ellipse cx="128" cy="158" rx="35" ry="28" fill="url(#muzzle)"/>
  <!-- Eyes -->
  <ellipse cx="103" cy="130" rx="8" ry="9" fill="#333"/>
  <ellipse cx="153" cy="130" rx="8" ry="9" fill="#333"/>
  <ellipse cx="105" cy="128" rx="3" ry="3.5" fill="#fff"/>
  <ellipse cx="155" cy="128" rx="3" ry="3.5" fill="#fff"/>
  <!-- Nose -->
  <ellipse cx="128" cy="150" rx="8" ry="6" fill="#5a3a1a"/>
  <ellipse cx="130" cy="149" rx="2.5" ry="2" fill="#8a6a4a" opacity="0.5"/>
  <!-- Mouth -->
  <path d="M118,158 Q128,168 138,158" fill="none" stroke="#6a4a2a" stroke-width="2" stroke-linecap="round"/>
  <!-- Blush -->
  <ellipse cx="92" cy="150" rx="12" ry="7" fill="#ff9dbd" opacity="0.4"/>
  <ellipse cx="164" cy="150" rx="12" ry="7" fill="#ff9dbd" opacity="0.4"/>
</svg>
